<svg width="834" height="590" viewBox="0 0 834 590" fill="none" xmlns="http://www.w3.org/2000/svg">
<path opacity="0.7" d="M602.31 249.083C600.678 245.471 599.046 241.975 597.413 238.596C535.745 115.663 372.308 11.8393 243.376 92.9404C213.533 111.701 193.132 141.881 187.42 178.003C177.744 239.295 166.553 306.181 134.728 359.782C117.475 389.03 98.4734 424.22 104.652 459.993C114.561 516.741 174.597 542.842 222.859 551.348C274.268 560.321 324.862 548.086 371.375 524.781C420.103 500.311 461.72 466.402 513.713 448.69C537.96 440.417 565.355 436.339 585.756 419.093C636.116 376.445 627.023 304.316 602.31 249.083Z" fill="#A7E6CB"/>
<path d="M143.122 90.9595H394.697C396.109 90.9595 397.255 92.1046 397.255 93.5172V581.301C397.255 582.714 396.109 583.859 394.697 583.859H130.525C129.112 583.859 127.967 582.714 127.967 581.301V93.5172C127.967 92.1046 129.112 90.9595 130.525 90.9595H135.544" stroke="#263238" stroke-width="0.719616" stroke-miterlimit="10"/>
<path d="M386.537 101.68H310.05C308.637 101.68 307.492 102.825 307.492 104.238V570.698C307.492 572.11 308.637 573.255 310.05 573.255H386.537C387.949 573.255 389.094 572.11 389.094 570.698V104.238C389.094 102.825 387.949 101.68 386.537 101.68Z" fill="#C7D1F4" fill-opacity="0.38" stroke="#263238" stroke-width="0.719616" stroke-miterlimit="10"/>
<path d="M295.608 101.68H223.784C222.372 101.68 221.227 102.825 221.227 104.238V570.698C221.227 572.11 222.372 573.255 223.784 573.255H295.608C297.021 573.255 298.166 572.11 298.166 570.698V104.238C298.166 102.825 297.021 101.68 295.608 101.68Z" fill="#C7D1F4" fill-opacity="0.38" stroke="#263238" stroke-width="0.719616" stroke-miterlimit="10"/>
<path d="M211.9 229.857V221.351" stroke="#263238" stroke-width="0.719616" stroke-miterlimit="10"/>
<path d="M211.901 213.661V104.239C211.901 102.826 210.755 101.681 209.343 101.681H138.685C137.272 101.681 136.127 102.826 136.127 104.239V570.582C136.127 571.995 137.272 573.14 138.685 573.14H209.343C210.755 573.14 211.901 571.995 211.901 570.582V240.345" fill="#C7D1F4" fill-opacity="0.38"/>
<path d="M211.901 213.661V104.239C211.901 102.826 210.755 101.681 209.343 101.681H138.685C137.272 101.681 136.127 102.826 136.127 104.239V570.582C136.127 571.995 137.272 573.14 138.685 573.14H209.343C210.755 573.14 211.901 571.995 211.901 570.582V240.345" stroke="#263238" stroke-width="0.719616" stroke-miterlimit="10"/>
<path d="M150.974 393.263C150.974 393.263 150.974 388.259 144.05 381.338C137.126 374.417 132.652 370.37 132.652 370.37C132.652 370.37 129.137 381.764 135.635 388.685C142.133 395.606 150.974 402.101 150.974 402.101V393.263Z" fill="#009BA6"/>
<path d="M148.418 407.318C148.418 407.318 149.483 402.42 157.685 397.097C165.888 391.773 171.107 388.791 171.107 388.791C171.107 388.791 172.066 400.717 164.396 406.147C156.62 411.578 146.5 416.05 146.5 416.05L148.418 407.318Z" fill="#009BA6"/>
<path d="M150.761 447.248C150.761 447.248 150.761 442.243 157.685 435.322C164.609 428.401 169.083 424.355 169.083 424.355C169.083 424.355 172.598 435.748 166.1 442.669C159.602 449.696 150.761 456.085 150.761 456.085V447.248Z" fill="#009BA6"/>
<path d="M150.655 456.937C150.655 456.937 151.4 452.039 145.435 444.16C139.576 436.28 135.635 431.702 135.635 431.702C135.635 431.702 130.522 442.456 135.954 450.335C141.387 458.108 149.27 465.775 149.27 465.775L150.655 456.937Z" fill="#009BA6"/>
<path d="M143.73 485.793C143.73 485.793 143.73 480.788 150.655 473.867C157.579 466.946 162.053 462.9 162.053 462.9C162.053 462.9 165.568 474.293 159.07 481.214C152.572 488.135 143.73 494.631 143.73 494.631V485.793Z" fill="#009BA6"/>
<path d="M148.418 511.986C148.418 511.986 147.139 507.195 152.146 498.676C157.153 490.158 160.455 485.26 160.455 485.26C160.455 485.26 166.74 495.376 162.266 503.787C157.792 512.093 150.761 520.611 150.761 520.611L148.418 511.986Z" fill="#009BA6"/>
<path d="M162.643 362.334C162.643 362.334 162.643 357.233 155.586 350.179C148.528 343.124 143.968 339 143.968 339C143.968 339 140.385 350.613 147.008 357.667C153.631 364.722 162.643 371.342 162.643 371.342V362.334Z" fill="#009BA6"/>
<path d="M161.626 361C161.2 366.324 160.668 371.754 159.709 376.439C156.939 390.601 150.122 399.758 147.352 412.642C144.583 425.419 152.465 441.923 150.335 458.427C148.204 474.931 141.813 484.089 143.624 495.056C145.435 506.023 155.448 537.221 155.448 537.221" stroke="#263238" stroke-width="0.719616" stroke-miterlimit="10" stroke-linecap="round" stroke-linejoin="round"/>
<path d="M161.865 366.156C161.865 366.156 162.899 361.242 171.302 355.752C179.704 350.263 184.921 347.183 184.921 347.183C184.921 347.183 186.007 359.288 178.145 364.832C170.283 370.375 160 375.023 160 375.023L161.865 366.156Z" fill="#009BA6"/>
<path d="M160.561 373.99L168.018 368.24" stroke="#263238" stroke-width="0.719616" stroke-miterlimit="10" stroke-linecap="round" stroke-linejoin="round"/>
<path d="M160.881 367.388L157.792 361.852" stroke="#263238" stroke-width="0.719616" stroke-miterlimit="10" stroke-linecap="round" stroke-linejoin="round"/>
<path d="M147.779 412.003C147.779 412.003 154.063 407.318 160.455 402.633" stroke="#263238" stroke-width="0.719616" stroke-miterlimit="10" stroke-linecap="round" stroke-linejoin="round"/>
<path d="M150.975 402.207C150.975 402.207 145.755 391.985 139.79 385.17" stroke="#263238" stroke-width="0.719616" stroke-miterlimit="10" stroke-linecap="round" stroke-linejoin="round"/>
<path d="M150.974 454.275C150.974 454.275 155.874 444.692 164.396 436.386" stroke="#263238" stroke-width="0.719616" stroke-miterlimit="10" stroke-linecap="round" stroke-linejoin="round"/>
<path d="M149.696 461.195C149.696 461.195 146.607 453.742 142.878 448.312C139.256 442.881 138.724 442.242 138.724 442.242" stroke="#263238" stroke-width="0.719616" stroke-miterlimit="10" stroke-linecap="round" stroke-linejoin="round"/>
<path d="M143.73 494.949C143.73 494.949 146.287 488.561 149.376 483.556C152.465 478.552 156.726 473.973 156.726 473.973" stroke="#263238" stroke-width="0.719616" stroke-miterlimit="10" stroke-linecap="round" stroke-linejoin="round"/>
<path d="M150.654 520.611C150.654 520.611 149.909 514.648 152.572 509.644C155.235 504.639 158.111 497.931 159.389 495.376" stroke="#263238" stroke-width="0.719616" stroke-miterlimit="10" stroke-linecap="round" stroke-linejoin="round"/>
<path d="M115.502 428.507C115.502 428.507 114.969 425.419 118.591 420.308C122.213 415.197 124.556 412.216 124.556 412.216C124.556 412.216 127.965 419.03 124.663 424.035C121.36 429.039 116.46 434.15 116.46 434.15L115.502 428.507Z" fill="#009BA6"/>
<path d="M125.195 446.928C125.195 446.928 124.663 443.84 128.284 438.729C131.906 433.618 134.25 430.637 134.25 430.637C134.25 430.637 137.659 437.452 134.356 442.456C131.054 447.46 126.154 452.571 126.154 452.571L125.195 446.928Z" fill="#009BA6"/>
<path d="M116.78 433.831C116.78 433.831 115.928 430.744 110.495 427.762C105.063 424.674 101.654 423.077 101.654 423.077C101.654 423.077 101.547 430.637 106.66 433.831C111.774 436.919 118.378 439.368 118.378 439.368L116.78 433.831Z" fill="#009BA6"/>
<path d="M128.391 455.446C128.391 455.446 127.22 452.465 121.467 450.016C115.715 447.567 112.093 446.289 112.093 446.289C112.093 446.289 112.732 453.849 118.165 456.405C123.598 458.96 130.415 460.664 130.415 460.664L128.391 455.446Z" fill="#009BA6"/>
<path d="M131.267 480.681C131.267 480.681 130.735 477.593 125.621 473.973C120.508 470.353 117.313 468.33 117.313 468.33C117.313 468.33 116.354 475.89 121.148 479.51C125.941 483.13 132.226 486.218 132.226 486.218L131.267 480.681Z" fill="#009BA6"/>
<path d="M132.332 486.751C132.332 486.751 131.374 483.769 134.25 478.126C137.126 472.589 139.043 469.288 139.043 469.288C139.043 469.288 143.411 475.464 140.854 481.001C138.298 486.431 134.143 492.181 134.143 492.181L132.332 486.751Z" fill="#009BA6"/>
<path d="M141.067 511.88C141.067 511.88 141.387 508.792 146.287 504.852C151.187 500.913 154.276 498.783 154.276 498.783C154.276 498.783 155.661 506.236 151.081 510.176C146.5 514.116 140.428 517.523 140.428 517.523L141.067 511.88Z" fill="#009BA6"/>
<path d="M139.789 504.107C139.789 504.107 139.257 501.019 134.143 497.398C129.03 493.778 125.835 491.755 125.835 491.755C125.835 491.755 124.876 499.315 129.669 502.935C134.463 506.556 140.748 509.643 140.748 509.643L139.789 504.107Z" fill="#009BA6"/>
<path d="M139.789 521.036C139.789 521.036 140.109 517.842 136.061 513.157C132.013 508.366 129.456 505.597 129.456 505.597C129.456 505.597 126.687 512.625 130.309 517.416C134.037 522.208 139.363 526.786 139.363 526.786L139.789 521.036Z" fill="#009BA6"/>
<path d="M114.969 427.762C115.821 431.063 116.78 434.47 117.845 437.238C121.147 445.863 126.367 450.868 129.563 458.534C132.652 466.307 129.563 477.487 132.652 487.603C135.741 497.718 140.748 502.722 140.854 509.856C140.854 516.991 138.085 536.689 138.085 536.689" stroke="#263238" stroke-width="0.719616" stroke-miterlimit="10" stroke-linecap="round" stroke-linejoin="round"/>
<path d="M117.1 435.854L111.773 433.085" stroke="#263238" stroke-width="0.719616" stroke-miterlimit="10" stroke-linecap="round" stroke-linejoin="round"/>
<path d="M116.247 431.702L117.526 427.868" stroke="#263238" stroke-width="0.719616" stroke-miterlimit="10" stroke-linecap="round" stroke-linejoin="round"/>
<path d="M129.243 458.321C129.243 458.321 124.769 456.085 120.295 453.849" stroke="#263238" stroke-width="0.719616" stroke-miterlimit="10" stroke-linecap="round" stroke-linejoin="round"/>
<path d="M126.154 452.465C126.154 452.465 128.285 445.438 131.267 440.54" stroke="#263238" stroke-width="0.719616" stroke-miterlimit="10" stroke-linecap="round" stroke-linejoin="round"/>
<path d="M131.907 485.154C131.907 485.154 127.859 479.723 121.574 475.358" stroke="#263238" stroke-width="0.719616" stroke-miterlimit="10" stroke-linecap="round" stroke-linejoin="round"/>
<path d="M133.398 489.413C133.398 489.413 134.569 484.409 136.274 480.575C137.978 476.742 138.191 476.316 138.191 476.316" stroke="#263238" stroke-width="0.719616" stroke-miterlimit="10" stroke-linecap="round" stroke-linejoin="round"/>
<path d="M140.535 515.181C140.535 515.181 144.05 510.815 146.287 509.218C148.524 507.621 150.015 506.023 150.015 506.023" stroke="#263238" stroke-width="0.719616" stroke-miterlimit="10" stroke-linecap="round" stroke-linejoin="round"/>
<path d="M140.748 509.856C140.748 509.856 138.511 506.13 135.954 503.361C133.398 500.486 130.309 498.144 130.309 498.144" stroke="#263238" stroke-width="0.719616" stroke-miterlimit="10" stroke-linecap="round" stroke-linejoin="round"/>
<path d="M139.257 526.68C139.257 526.68 139.044 522.847 136.913 519.972C134.676 517.097 132.12 513.264 131.054 511.773" stroke="#263238" stroke-width="0.719616" stroke-miterlimit="10" stroke-linecap="round" stroke-linejoin="round"/>
<path d="M159.709 583.859H130.735C129.457 583.859 128.498 582.794 128.498 581.623L121.254 537.008H169.19L161.946 581.623C161.946 582.794 160.988 583.859 159.709 583.859Z" fill="#263238" stroke="#263238" stroke-width="0.719616" stroke-miterlimit="10" stroke-linecap="round" stroke-linejoin="round"/>
<path d="M123.065 543.291H157.579" stroke="white" stroke-width="0.719616" stroke-miterlimit="10" stroke-linecap="round" stroke-linejoin="round"/>
<path d="M160.881 543.291H166.527" stroke="white" stroke-width="0.719616" stroke-miterlimit="10" stroke-linecap="round" stroke-linejoin="round"/>
<path d="M654.041 365.36C654.041 365.36 654.253 358.991 657.014 354.533C659.669 350.074 669.546 346.889 674.644 349.119C679.741 351.348 682.29 352.834 682.29 352.834C682.29 352.834 674.644 355.063 667.847 359.734C660.944 364.299 654.041 365.36 654.041 365.36Z" fill="#009BA6"/>
<path d="M643.739 368.545C643.739 368.545 649.58 362.919 650.642 355.063C651.598 347.208 643.314 335 643.314 335C643.314 335 639.173 342.643 636.73 351.454C634.181 360.159 643.739 368.545 643.739 368.545Z" fill="#009BA6"/>
<path d="M632.482 366.104C632.482 366.104 633.969 358.779 631.207 353.577C628.552 348.482 621.437 348.906 614.322 351.136C607.206 353.365 604.976 353.365 604.976 353.365C604.976 353.365 613.26 358.991 620.375 361.964C627.597 364.83 632.482 366.104 632.482 366.104Z" fill="#009BA6"/>
<path d="M643.739 392.43C644.058 392.43 644.376 392.111 644.376 391.793V356.762C644.376 356.443 644.058 356.125 643.739 356.125C643.421 356.125 643.102 356.443 643.102 356.762V391.793C643.102 392.217 643.421 392.43 643.739 392.43Z" fill="#263238"/>
<path d="M640.765 392.43C640.765 392.43 640.872 392.43 640.765 392.43C641.19 392.324 641.403 392.005 641.403 391.687C641.296 390.838 638.323 370.031 628.234 358.567C628.021 358.354 627.596 358.248 627.384 358.46C627.172 358.673 627.065 359.097 627.278 359.31C637.155 370.668 640.128 391.687 640.128 391.899C640.234 392.218 640.447 392.43 640.765 392.43Z" fill="#263238"/>
<path d="M646.713 392.005C647.031 392.005 647.35 391.687 647.35 391.368C647.35 391.156 647.244 371.199 659.138 361.751C659.457 361.539 659.457 361.114 659.245 360.902C659.032 360.583 658.607 360.583 658.395 360.796C646.076 370.668 646.182 390.625 646.182 391.474C646.076 391.687 646.288 392.005 646.713 392.005Z" fill="#263238"/>
<path d="M636.836 391.687C636.942 391.687 636.942 391.687 637.049 391.687C637.367 391.581 637.58 391.262 637.473 390.944C637.367 390.732 635.668 384.362 631.739 378.948C631.526 378.63 631.101 378.63 630.889 378.842C630.57 379.055 630.57 379.479 630.783 379.692C634.606 384.893 636.305 391.156 636.305 391.262C636.305 391.581 636.624 391.687 636.836 391.687Z" fill="#263238"/>
<path d="M633.013 382.027C633.013 382.027 633.225 375.127 630.358 374.171C627.384 373.216 624.729 375.658 622.499 377.144C620.269 378.63 617.826 380.116 617.826 384.469C617.826 388.927 619.525 396.995 619.525 396.995C619.525 396.995 621.968 389.352 626.11 385.955C630.358 382.452 633.013 382.027 633.013 382.027Z" fill="#009BA6"/>
<path d="M651.067 392.005C651.386 392.005 651.598 391.793 651.704 391.581C651.704 391.475 653.616 385.636 658.076 382.133C658.395 381.921 658.395 381.496 658.183 381.284C657.97 380.965 657.545 380.965 657.333 381.178C652.554 384.893 650.536 391.05 650.536 391.262C650.43 391.581 650.642 391.899 650.961 392.005H651.067Z" fill="#263238"/>
<path d="M654.041 384.15C654.041 384.15 653.085 379.691 655.527 376.507C657.97 373.322 663.811 374.065 666.785 377.462C669.758 380.859 673.9 391.156 673.9 391.156C673.9 391.156 668.059 386.485 661.156 386.485C654.359 386.591 654.041 384.15 654.041 384.15Z" fill="#009BA6"/>
<path d="M634.5 429.584H654.147L663.917 397.207H624.729L634.5 429.584Z" fill="#263238" stroke="#263238" stroke-width="0.655577" stroke-miterlimit="10" stroke-linecap="round" stroke-linejoin="round"/>
<path d="M624.623 391.793H664.023V397.207H624.623V391.793Z" fill="#263238" stroke="#263238" stroke-width="0.655577" stroke-miterlimit="10" stroke-linecap="round" stroke-linejoin="round"/>
<path d="M676.98 428.735V583.509H671.351V522.788H571.629V583.509H566V428.735H676.98ZM671.351 517.056V456.972H571.629V517.056H671.351Z" fill="#263238" stroke="#263238" stroke-width="0.655577" stroke-miterlimit="10" stroke-linecap="round" stroke-linejoin="round"/>
<path d="M568.859 65.6733H451.805C450.392 65.6733 449.247 66.8185 449.247 68.2311V303.972C449.247 305.385 450.392 306.53 451.805 306.53H568.859C570.272 306.53 571.417 305.385 571.417 303.972V68.2311C571.417 66.8185 570.272 65.6733 568.859 65.6733Z" stroke="#263238" stroke-width="0.719616" stroke-miterlimit="10"/>
<path d="M563.73 71.2666H456.934C455.521 71.2666 454.376 72.4118 454.376 73.8244V298.495C454.376 299.908 455.521 301.053 456.934 301.053H563.73C565.143 301.053 566.288 299.908 566.288 298.495V73.8244C566.288 72.4118 565.143 71.2666 563.73 71.2666Z" fill="#F0F3FF" stroke="#263238" stroke-width="0.719616" stroke-miterlimit="10"/>
<path d="M517.093 81.7535C517.093 81.7535 511.031 76.2769 504.387 81.1709C497.742 86.065 501.705 94.6878 501.705 94.6878C501.705 94.6878 501.705 97.3678 502.288 98.7661C502.871 100.164 504.27 102.029 504.503 102.611C504.736 103.194 505.319 105.874 504.154 108.088C502.988 110.302 490.165 112.749 488.183 118.808C486.201 124.868 483.986 143.745 483.52 145.376C483.17 147.007 476.409 162.971 475.826 165.884C475.243 168.681 473.611 172.992 473.611 172.992C473.611 172.992 464.868 178.469 464.518 179.867C464.168 181.266 465.334 180.916 466.5 180.916C467.666 180.916 467.316 180.1 467.666 180.916C468.015 181.732 465.684 187.441 465.684 187.441C465.684 187.441 466.034 188.84 467.316 188.024C468.482 187.208 469.181 185.344 469.181 185.344L468.365 191.054C468.249 191.52 468.598 191.986 469.181 192.102C469.531 192.102 469.997 191.986 470.114 191.52L472.212 186.626L471.862 191.17C471.629 192.568 472.678 193.501 473.494 192.102L474.077 190.355L474.893 185.927L475.243 189.772C475.243 190.355 475.826 190.704 476.292 190.588C476.642 190.471 476.992 190.121 476.992 189.772L477.225 183.713C477.225 183.713 478.857 179.867 478.857 177.653C478.857 175.439 479.09 174.391 479.09 174.391C479.09 174.391 489.582 158.427 490.631 154.115C491.68 149.92 492.846 143.745 493.429 142.812C494.012 141.764 494.594 139.317 494.594 139.317C494.594 139.317 497.043 145.143 496.46 149.804C495.877 154.465 493.662 161.34 492.962 165.768C492.38 170.196 491.33 183.13 491.33 190.704C491.33 198.162 494.361 214.592 494.594 215.99C494.828 217.388 490.514 232.42 491.797 239.295C492.962 246.17 493.778 265.862 493.662 267.494C493.429 269.125 491.797 272.388 490.864 274.019C489.815 275.651 489.698 278.098 490.514 278.913C491.33 279.729 494.361 279.962 495.76 279.496C497.159 279.146 500.656 274.485 500.656 271.572C500.656 268.776 500.423 266.562 500.889 260.386C501.356 254.21 505.086 238.13 505.086 232.42C505.086 226.71 506.718 219.253 507.767 214.359C508.817 209.465 508.117 204.454 509.166 201.657C510.215 198.861 511.381 180.566 511.381 180.566H512.547C512.547 180.566 516.394 204.221 516.977 207.95C517.56 211.562 518.959 219.136 519.192 220.534C519.425 221.933 520.591 239.761 521.057 243.606C521.407 247.452 523.738 253.161 524.554 257.123C525.37 261.202 525.603 268.892 525.953 271.339C526.303 273.786 528.401 277.165 529.45 278.447C530.499 279.612 533.647 278.797 535.162 277.631C536.561 276.466 534.929 274.369 533.997 271.805C532.948 269.125 531.782 269.009 531.782 263.649C531.782 258.405 532.598 239.761 532.598 232.07C532.598 224.38 530.15 212.844 530.15 209.814C530.15 206.784 533.181 190.937 532.948 182.897C532.714 174.74 531.082 163.67 530.499 160.641C529.917 157.611 527.702 152.95 526.886 149.92C526.07 146.891 527.119 139.2 527.119 139.2L531.549 150.736C531.549 150.736 533.997 155.397 536.445 161.107C538.893 166.817 543.09 172.293 543.09 172.293C543.09 172.293 543.672 178.003 543.906 179.751C544.139 181.615 544.255 182.547 544.488 183.247C544.722 183.946 545.071 189.306 545.304 189.888C545.538 190.471 546.12 190.121 546.12 189.306C546.12 188.49 546.12 186.509 546.47 185.81C546.82 185.227 547.286 188.024 547.519 189.422C547.752 190.821 548.335 191.869 548.918 190.471C549.501 189.073 549.501 185.227 549.501 185.227C549.501 185.227 550.317 184.878 550.55 186.626C550.783 188.49 553.232 192.335 553.814 191.054C554.397 189.888 552.765 183.596 552.765 183.596C552.765 183.596 554.397 187.674 555.213 188.257C556.029 188.84 556.612 188.257 556.262 186.276C555.913 184.295 554.048 179.168 554.048 179.168C554.048 179.168 557.312 180.566 557.312 178.935C557.312 177.304 554.63 176.255 553.232 174.507C551.833 172.643 547.986 169.846 547.986 169.846C547.986 169.846 543.323 153.999 542.273 151.435C541.224 148.755 537.844 144.094 537.61 142.696C537.377 141.298 535.162 130.927 535.162 130.927C535.162 130.927 534.58 117.527 532.481 115.08C530.499 112.633 523.622 112.283 521.523 110.652C519.541 109.02 517.443 107.039 517.443 105.641C517.443 104.243 517.443 101.446 517.443 101.446C517.443 101.446 519.308 99.4653 519.425 97.3678C519.658 95.3869 519.658 93.7556 519.658 93.7556C519.658 93.7556 521.64 87.1137 517.093 81.7535Z" fill="#808080"/>
<path d="M514.179 93.1731C514.179 93.1731 517.676 89.7939 517.676 87.813C517.676 85.8321 516.627 82.2198 512.664 80.705C508.7 79.1902 503.921 81.9868 502.638 85.4825C501.356 88.9782 505.086 92.1244 506.019 93.1731C506.835 94.2219 509.166 94.8045 509.166 94.8045L510.216 165.651H511.498L511.731 95.2706L514.179 93.1731Z" stroke="#C7C7C7" stroke-width="0.719616" stroke-miterlimit="10"/>
<path d="M510.915 174.741C510.915 174.741 509.05 177.654 508 178.47C506.951 179.285 506.485 178.936 506.368 179.518" stroke="#C7C7C7" stroke-width="0.719616" stroke-miterlimit="10"/>
<path d="M510.449 178.353C510.449 178.353 506.485 188.374 506.718 192.569C506.951 196.764 506.951 197.579 506.951 200.492C506.951 203.406 507.184 205.736 507.184 207.95" stroke="#C7C7C7" stroke-width="0.719616" stroke-miterlimit="10"/>
<path d="M507.768 187.208C507.768 187.208 509.4 189.539 508.234 194.899" stroke="#C7C7C7" stroke-width="0.719616" stroke-miterlimit="10"/>
<path d="M509.166 112.866C509.166 112.866 499.84 116.828 498.558 119.974C497.276 123.12 501.473 122.421 502.522 122.421" stroke="#C7C7C7" stroke-width="0.719616" stroke-miterlimit="10"/>
<path d="M509.167 115.196C509.167 115.196 496.227 123.353 496.926 124.984C497.509 126.616 502.988 126.849 502.988 126.849" stroke="#C7C7C7" stroke-width="0.719616" stroke-miterlimit="10"/>
<path d="M509.633 119.625C509.633 119.625 497.742 127.781 497.975 129.879C498.208 131.976 503.571 130.345 503.571 130.345" stroke="#C7C7C7" stroke-width="0.719616" stroke-miterlimit="10"/>
<path d="M509.4 123.703C509.4 123.703 497.742 134.073 497.975 134.772C498.209 135.355 501.356 135.006 501.356 135.006" stroke="#C7C7C7" stroke-width="0.719616" stroke-miterlimit="10"/>
<path d="M509.399 128.364C509.399 128.364 498.092 136.054 498.558 137.919C499.024 139.783 502.522 138.734 502.522 138.734" stroke="#C7C7C7" stroke-width="0.719616" stroke-miterlimit="10"/>
<path d="M509.167 131.626C509.167 131.626 500.423 139.9 499.607 142.23C498.791 144.561 500.074 144.677 500.074 144.677L500.657 145.493" stroke="#C7C7C7" stroke-width="0.719616" stroke-miterlimit="10"/>
<path d="M509.4 136.054C509.4 136.054 500.19 144.794 500.423 146.891C500.656 148.988 502.289 149.221 502.289 149.221" stroke="#C7C7C7" stroke-width="0.719616" stroke-miterlimit="10"/>
<path d="M509.4 138.968C509.4 138.968 501.123 149.805 501.123 151.902C501.123 153.999 501.939 154.582 501.939 154.582" stroke="#C7C7C7" stroke-width="0.719616" stroke-miterlimit="10"/>
<path d="M509.4 141.647C509.4 141.647 503.804 151.202 503.338 152.95C502.872 154.582 502.872 156.097 502.872 156.097" stroke="#C7C7C7" stroke-width="0.719616" stroke-miterlimit="10"/>
<path d="M509.4 146.425L505.086 155.164" stroke="#C7C7C7" stroke-width="0.719616" stroke-miterlimit="10"/>
<path d="M509.633 150.62C509.633 150.62 505.436 157.495 504.62 158.311" stroke="#C7C7C7" stroke-width="0.719616" stroke-miterlimit="10"/>
<path d="M509.633 154.815C509.633 154.815 506.135 159.593 504.387 160.641C502.755 161.69 499.607 161.923 499.141 161.108C498.675 160.292 498.675 157.728 498.558 156.913" stroke="#C7C7C7" stroke-width="0.719616" stroke-miterlimit="10"/>
<path d="M499.258 160.99C499.258 160.99 498.675 162.039 497.626 164.137C496.577 166.234 495.76 166.584 495.76 166.584" stroke="#C7C7C7" stroke-width="0.719616" stroke-miterlimit="10"/>
<path d="M497.509 164.137L495.877 163.554" stroke="#C7C7C7" stroke-width="0.719616" stroke-miterlimit="10"/>
<path d="M498.442 158.893L496.343 158.077" stroke="#C7C7C7" stroke-width="0.719616" stroke-miterlimit="10"/>
<path d="M509.633 157.495C509.633 157.495 503.221 162.855 502.289 165.768C501.473 168.681 496.693 175.09 495.994 178.003C495.411 180.916 495.76 182.548 495.411 186.743C495.061 190.937 493.895 193.384 493.895 195.948" stroke="#C7C7C7" stroke-width="0.719616" stroke-miterlimit="10"/>
<path d="M495.877 177.421C495.877 177.421 494.245 179.868 494.012 181.616" stroke="#C7C7C7" stroke-width="0.719616" stroke-miterlimit="10"/>
<path d="M495.644 183.713C495.644 183.713 493.779 186.626 493.545 188.258" stroke="#C7C7C7" stroke-width="0.719616" stroke-miterlimit="10"/>
<path d="M509.866 159.942C509.866 159.942 505.319 164.486 505.086 165.535C504.853 166.584 509.633 162.622 509.633 162.622C509.633 162.622 506.485 167.866 504.62 171.827C502.755 175.789 499.024 179.984 499.024 184.296C499.024 188.723 500.54 192.569 501.123 196.181C501.706 199.677 502.988 204.92 502.755 210.747C502.522 216.573 502.289 219.253 502.289 222.632C502.289 226.011 502.055 231.372 501.706 232.42C501.239 233.469 500.656 236.848 500.656 236.848" stroke="#C7C7C7" stroke-width="0.719616" stroke-miterlimit="10"/>
<path d="M510.682 166.468C510.682 166.468 503.571 181.849 502.522 186.626C501.472 191.404 500.423 202.241 500.074 204.571C499.607 206.902 499.84 215.408 499.607 218.904C499.374 222.399 498.791 240.927 498.791 242.908C498.791 244.772 497.509 265.863 497.509 267.727C497.509 269.592 496.693 272.272 495.644 273.787C494.595 275.302 493.545 277.516 493.545 277.516" stroke="#C7C7C7" stroke-width="0.719616" stroke-miterlimit="10"/>
<path d="M499.607 207.484C498.791 208.3 496.46 212.727 496.926 216.806C497.392 221.001 495.061 230.556 495.061 233.702C495.061 236.848 495.294 242.674 495.527 243.956C495.76 245.238 495.76 249.2 495.994 252.695C496.227 256.191 496.46 260.153 496.46 262.95C496.46 265.746 495.994 266.445 494.944 268.776C493.895 271.106 492.263 274.835 492.263 274.835" stroke="#C7C7C7" stroke-width="0.719616" stroke-miterlimit="10"/>
<path d="M499.841 266.562L497.975 260.503" stroke="#C7C7C7" stroke-width="0.719616" stroke-miterlimit="10"/>
<path d="M503.221 215.524C503.221 215.524 504.27 217.971 504.504 220.535" stroke="#C7C7C7" stroke-width="0.719616" stroke-miterlimit="10"/>
<path d="M510.682 170.779C510.682 170.779 511.148 174.158 508.817 175.323C506.485 176.605 504.62 175.789 501.356 172.41C497.975 169.031 498.908 165.069 503.221 163.438" stroke="#C7C7C7" stroke-width="0.719616" stroke-miterlimit="10"/>
<path d="M506.252 195.832C506.252 195.832 504.97 199.211 504.97 201.192" stroke="#C7C7C7" stroke-width="0.719616" stroke-miterlimit="10"/>
<path d="M509.4 101.913C509.4 101.913 507.768 103.427 507.768 104.36C507.768 105.408 505.086 108.788 502.172 111.468C499.258 114.148 495.061 112.516 491.564 118.11C488.066 123.703 487.367 128.48 487.367 133.491C487.367 138.501 487.367 136.87 486.551 140.948C485.735 145.143 478.274 165.885 476.759 169.497C475.243 172.993 474.427 174.274 473.261 175.09C471.979 175.906 468.715 178.586 468.016 178.819" stroke="#C7C7C7" stroke-width="0.719616" stroke-miterlimit="10"/>
<path d="M509.05 107.04C509.05 107.04 505.087 110.536 502.405 112.4C499.724 114.265 492.38 116.595 490.748 121.14C489.116 125.684 488.883 132.209 488.649 135.705C488.416 139.201 485.152 148.989 484.453 151.086C483.753 153.184 473.145 175.09 473.145 175.09" stroke="#C7C7C7" stroke-width="0.719616" stroke-miterlimit="10"/>
<path d="M509.05 108.788C509.05 108.788 504.27 112.167 499.84 115.43C495.411 118.809 493.779 125.451 492.963 130.811C492.147 136.171 489.465 146.892 488.533 150.62C487.6 154.349 478.507 171.478 477.924 173.343C477.342 175.207 476.642 176.722 476.292 178.703C475.826 180.8 475.709 186.627 475.709 186.627" stroke="#C7C7C7" stroke-width="0.719616" stroke-miterlimit="10"/>
<path d="M499.841 115.43C499.841 115.43 494.595 118.809 492.963 122.771C491.331 126.733 489.232 139.667 488.416 144.677C487.6 149.688 476.759 172.527 475.71 174.508C474.66 176.372 471.28 183.014 470.347 185.811" stroke="#C7C7C7" stroke-width="0.719616" stroke-miterlimit="10"/>
<path d="M473.611 178.353C473.611 178.353 470.697 181.499 469.065 183.946" stroke="#C7C7C7" stroke-width="0.719616" stroke-miterlimit="10"/>
<path d="M474.427 177.887L473.145 188.724" stroke="#C7C7C7" stroke-width="0.719616" stroke-miterlimit="10"/>
<path d="M501.706 94.8047C501.706 94.8047 503.804 96.9021 505.669 97.3682C507.535 97.8343 509.05 96.7856 509.05 96.7856" stroke="#C7C7C7" stroke-width="0.719616" stroke-miterlimit="10"/>
<path d="M503.338 98.7668L506.719 98.9999L508.817 97.9512" stroke="#C7C7C7" stroke-width="0.719616" stroke-miterlimit="10"/>
<path d="M508.584 99.5825C508.584 99.5825 508.817 100.864 505.436 101.097" stroke="#C7C7C7" stroke-width="0.719616" stroke-miterlimit="10"/>
<path d="M511.498 112.866C511.498 112.866 520.824 116.828 522.106 119.974C523.388 123.12 519.192 122.421 518.143 122.421" stroke="#C7C7C7" stroke-width="0.719616" stroke-miterlimit="10"/>
<path d="M511.498 115.196C511.498 115.196 524.438 123.353 523.738 124.984C523.155 126.616 517.676 126.849 517.676 126.849" stroke="#C7C7C7" stroke-width="0.719616" stroke-miterlimit="10"/>
<path d="M511.148 119.625C511.148 119.625 523.039 127.781 522.805 129.879C522.572 131.976 517.21 130.345 517.21 130.345" stroke="#C7C7C7" stroke-width="0.719616" stroke-miterlimit="10"/>
<path d="M511.265 123.703C511.265 123.703 522.922 134.073 522.689 134.772C522.456 135.355 519.308 135.006 519.308 135.006" stroke="#C7C7C7" stroke-width="0.719616" stroke-miterlimit="10"/>
<path d="M511.265 128.364C511.265 128.364 522.572 136.054 522.106 137.919C521.64 139.783 518.143 138.734 518.143 138.734" stroke="#C7C7C7" stroke-width="0.719616" stroke-miterlimit="10"/>
<path d="M511.498 131.626C511.498 131.626 520.241 139.9 521.057 142.23C521.873 144.561 520.591 144.677 520.591 144.677L520.008 145.493" stroke="#C7C7C7" stroke-width="0.719616" stroke-miterlimit="10"/>
<path d="M511.265 136.054C511.265 136.054 520.474 144.794 520.241 146.891C520.008 148.988 518.376 149.221 518.376 149.221" stroke="#C7C7C7" stroke-width="0.719616" stroke-miterlimit="10"/>
<path d="M511.265 138.968C511.265 138.968 519.542 149.805 519.542 151.902C519.542 153.999 518.726 154.582 518.726 154.582" stroke="#C7C7C7" stroke-width="0.719616" stroke-miterlimit="10"/>
<path d="M511.265 141.647C511.265 141.647 516.86 151.202 517.327 152.95C517.793 154.582 517.793 156.097 517.793 156.097" stroke="#C7C7C7" stroke-width="0.719616" stroke-miterlimit="10"/>
<path d="M511.265 146.425L515.695 155.164" stroke="#C7C7C7" stroke-width="0.719616" stroke-miterlimit="10"/>
<path d="M511.148 150.62C511.148 150.62 515.345 157.495 516.161 158.311" stroke="#C7C7C7" stroke-width="0.719616" stroke-miterlimit="10"/>
<path d="M511.148 154.815C511.148 154.815 514.645 159.593 516.394 160.641C518.026 161.69 521.173 161.923 521.64 161.108C522.106 160.292 522.106 157.728 522.223 156.913" stroke="#C7C7C7" stroke-width="0.719616" stroke-miterlimit="10"/>
<path d="M521.523 160.99C521.523 160.99 522.106 162.039 523.155 164.137C524.204 166.234 525.02 166.584 525.02 166.584" stroke="#C7C7C7" stroke-width="0.719616" stroke-miterlimit="10"/>
<path d="M523.155 164.137L524.904 163.554" stroke="#C7C7C7" stroke-width="0.719616" stroke-miterlimit="10"/>
<path d="M522.339 158.893L524.437 158.077" stroke="#C7C7C7" stroke-width="0.719616" stroke-miterlimit="10"/>
<path d="M511.148 157.495C511.148 157.495 517.56 162.855 518.492 165.768C519.308 168.681 524.088 175.09 524.787 178.003C525.37 180.916 525.02 182.548 525.37 186.743C525.836 190.937 526.886 193.384 526.886 195.948" stroke="#C7C7C7" stroke-width="0.719616" stroke-miterlimit="10"/>
<path d="M524.904 177.421C524.904 177.421 526.536 179.868 526.769 181.616" stroke="#C7C7C7" stroke-width="0.719616" stroke-miterlimit="10"/>
<path d="M525.021 183.713C525.021 183.713 526.886 186.626 527.119 188.258" stroke="#C7C7C7" stroke-width="0.719616" stroke-miterlimit="10"/>
<path d="M510.915 159.942C510.915 159.942 515.461 164.486 515.694 165.535C515.928 166.584 511.148 162.622 511.148 162.622C511.148 162.622 514.295 167.866 516.161 171.827C518.026 175.789 521.756 179.984 521.756 184.296C521.756 188.723 520.241 192.569 519.658 196.181C519.075 199.677 521.173 204.338 521.407 210.164C521.64 215.99 521.873 218.67 521.873 222.05C521.873 225.429 522.106 230.789 522.456 231.838C522.922 232.886 523.505 236.266 523.505 236.266" stroke="#C7C7C7" stroke-width="0.719616" stroke-miterlimit="10"/>
<path d="M510.099 166.468C510.099 166.468 517.21 181.849 518.259 186.626C519.308 191.404 523.738 201.658 524.204 203.872C524.671 206.202 524.438 214.709 524.671 218.204C524.904 221.7 525.487 240.228 525.487 242.209C525.487 244.073 526.769 265.164 526.769 267.028C526.769 268.893 527.585 271.573 528.634 273.088C529.683 274.602 530.733 276.816 530.733 276.816" stroke="#C7C7C7" stroke-width="0.719616" stroke-miterlimit="10"/>
<path d="M524.554 206.785C525.37 207.601 527.702 212.029 527.235 216.107C526.769 220.302 529.101 229.857 529.101 233.003C529.101 236.149 528.867 241.975 528.634 243.257C528.401 244.539 528.401 248.501 528.168 251.996C527.935 255.492 527.702 259.454 527.702 262.251C527.702 264.931 528.168 265.746 529.217 268.077C530.266 270.407 531.898 274.136 531.898 274.136" stroke="#C7C7C7" stroke-width="0.719616" stroke-miterlimit="10"/>
<path d="M524.321 265.979L526.186 259.92" stroke="#C7C7C7" stroke-width="0.719616" stroke-miterlimit="10"/>
<path d="M520.94 214.942C520.94 214.942 519.891 217.389 519.658 219.952" stroke="#C7C7C7" stroke-width="0.719616" stroke-miterlimit="10"/>
<path d="M510.099 170.779C510.099 170.779 509.633 174.158 511.964 175.323C514.296 176.605 516.161 175.789 519.425 172.41C522.805 169.031 521.873 165.069 517.56 163.438" stroke="#C7C7C7" stroke-width="0.719616" stroke-miterlimit="10"/>
<path d="M519.658 196.181C519.658 196.181 518.492 200.376 518.492 202.473" stroke="#C7C7C7" stroke-width="0.719616" stroke-miterlimit="10"/>
<path d="M511.265 101.913C511.265 101.913 512.897 103.427 512.897 104.36C512.897 105.408 515.578 108.788 518.492 111.468C521.407 114.148 525.603 112.516 529.101 118.11C532.598 123.703 533.297 128.48 533.297 133.491C533.297 138.501 533.297 136.87 534.113 140.948C534.929 145.143 542.39 165.885 543.906 169.497C545.421 172.993 546.237 174.274 547.403 175.09C548.685 175.906 551.949 178.586 552.649 178.819" stroke="#C7C7C7" stroke-width="0.719616" stroke-miterlimit="10"/>
<path d="M511.731 107.04C511.731 107.04 515.694 110.536 518.376 112.4C521.057 114.265 528.401 116.595 530.033 121.14C531.665 125.684 531.898 132.209 532.132 135.705C532.365 139.201 535.629 148.989 536.328 151.086C536.911 153.184 547.636 175.09 547.636 175.09" stroke="#C7C7C7" stroke-width="0.719616" stroke-miterlimit="10"/>
<path d="M511.731 108.788C511.731 108.788 516.511 112.167 520.94 115.43C525.37 118.809 527.002 125.451 527.818 130.811C528.634 136.171 531.315 146.892 532.248 150.62C533.181 154.349 542.273 171.478 542.856 173.343C543.439 175.207 544.139 176.722 544.488 178.703C544.955 180.8 545.071 186.627 545.071 186.627" stroke="#C7C7C7" stroke-width="0.719616" stroke-miterlimit="10"/>
<path d="M520.94 115.43C520.94 115.43 526.186 118.809 527.818 122.771C529.45 126.733 531.548 139.667 532.365 144.677C533.181 149.688 544.022 172.527 545.071 174.508C546.12 176.372 549.501 183.014 550.434 185.811" stroke="#C7C7C7" stroke-width="0.719616" stroke-miterlimit="10"/>
<path d="M547.17 178.353C547.17 178.353 550.084 181.499 551.716 183.946" stroke="#C7C7C7" stroke-width="0.719616" stroke-miterlimit="10"/>
<path d="M546.354 177.887L547.519 188.724" stroke="#C7C7C7" stroke-width="0.719616" stroke-miterlimit="10"/>
<path d="M518.959 94.8047C518.959 94.8047 516.86 96.9021 514.995 97.3682C513.13 97.8343 511.615 96.7856 511.615 96.7856" stroke="#C7C7C7" stroke-width="0.719616" stroke-miterlimit="10"/>
<path d="M517.327 98.7668L514.062 98.9999L511.964 97.9512" stroke="#C7C7C7" stroke-width="0.719616" stroke-miterlimit="10"/>
<path d="M512.197 99.5825C512.197 99.5825 511.964 100.864 515.345 101.097" stroke="#C7C7C7" stroke-width="0.719616" stroke-miterlimit="10"/>
<path d="M463.119 96.436H472.212L489.931 113.099" stroke="#263238" stroke-width="0.719616" stroke-miterlimit="10"/>
<path d="M553.348 107.739H548.569L535.629 124.984" stroke="#263238" stroke-width="0.719616" stroke-miterlimit="10"/>
<path d="M554.397 212.96H549.035L532.947 200.609" stroke="#263238" stroke-width="0.719616" stroke-miterlimit="10"/>
<path d="M470.114 254.327H477.574L489.465 246.869" stroke="#263238" stroke-width="0.719616" stroke-miterlimit="10"/>
<path d="M463.119 206.552H471.746L488.882 192.103" stroke="#263238" stroke-width="0.719616" stroke-miterlimit="10"/>
<path d="M556.612 146.425H551.716L546.936 155.514" stroke="#263238" stroke-width="0.719616" stroke-miterlimit="10"/>
<path d="M543.672 83.0356H535.162L521.64 94.8046" stroke="#263238" stroke-width="0.719616" stroke-miterlimit="10"/>
<path d="M484.103 82.4531H492.612L496.926 86.7645" stroke="#263238" stroke-width="0.719616" stroke-miterlimit="10"/>
<path d="M500.773 284.973H521.64" stroke="#263238" stroke-width="0.719616" stroke-miterlimit="10"/>
<path d="M480.839 289.284H539.359" stroke="#263238" stroke-width="0.719616" stroke-miterlimit="10"/>
<path d="M407.047 220.069C407.047 220.069 407.513 250.832 405.998 251.764C404.482 252.813 397.954 260.853 389.677 255.376C381.4 249.9 386.063 235.45 386.297 227.993C386.53 220.535 396.089 217.972 398.187 217.389C400.285 217.04 407.047 220.069 407.047 220.069Z" fill="#F8E9C5" stroke="#263238" stroke-width="0.719616" stroke-miterlimit="10"/>
<path d="M407.047 220.069C407.047 220.069 400.285 216.923 398.304 217.506C396.205 217.972 386.646 220.652 386.413 228.109C386.18 233.819 383.499 243.607 385.83 250.366L391.076 249.317L394.923 226.711L407.047 226.128C407.047 222.633 407.047 220.069 407.047 220.069Z" fill="#263238" stroke="#263238" stroke-width="0.719616" stroke-miterlimit="10"/>
<path d="M281.729 559.622C281.729 559.622 257.831 575.469 257.132 578.033C256.432 580.596 257.132 583.859 257.132 583.859H305.277V569.527C305.277 569.527 289.073 559.972 281.729 559.622Z" fill="#797474" stroke="#263238" stroke-width="0.719616" stroke-miterlimit="10"/>
<path d="M375.572 559.622C375.572 559.622 399.469 575.469 400.169 578.033C400.868 580.596 400.169 583.859 400.169 583.859H352.023V569.527C352.023 569.527 368.227 559.972 375.572 559.622Z" fill="#797474" stroke="#263238" stroke-width="0.719616" stroke-miterlimit="10"/>
<path d="M287.788 298.95C286.331 298.827 285.067 299.948 285.016 301.41L281.03 416.064L282.883 542.307C282.891 542.808 282.752 543.298 282.489 543.725C281.523 545.297 279.164 549.284 279.164 550.766C279.164 552.056 279.499 556.135 279.705 558.526C279.798 559.603 280.561 560.502 281.601 560.802C283.266 561.282 285.978 562.11 289.073 563.235C292.6 564.517 298.773 567.837 302.286 569.787C303.671 570.556 305.426 569.919 305.963 568.428C307.022 565.486 308.615 560.98 309.357 558.457C310.406 554.379 308.308 545.173 308.308 542.61C308.308 540.082 317.261 488.615 317.512 487.175C317.52 487.129 317.52 487.121 317.526 487.075L330.492 378.07C330.859 374.986 335.372 375.099 335.584 378.198L343.28 490.873L349.05 545.426C349.089 545.797 349.047 546.169 348.93 546.523C348.301 548.421 346.248 554.831 346.545 556.709C346.803 558.348 349.49 564.84 350.868 568.102C351.336 569.209 352.515 569.829 353.696 569.598L379.449 564.57C380.65 564.336 381.517 563.284 381.517 562.06V555.311C381.517 555.079 381.485 554.848 381.423 554.625L379.007 545.951C378.971 545.821 378.945 545.689 378.929 545.555L377.437 532.472V432.727L378.136 345.916L377.478 308.839C377.455 307.528 376.443 306.447 375.136 306.336L287.788 298.95Z" fill="#009BA6" stroke="#263238" stroke-width="0.719616" stroke-miterlimit="10"/>
<path d="M285.11 298.723L284.294 320.863C289.306 322.611 332.556 336.943 377.787 325.291L377.437 306.531L285.11 298.723Z" fill="#263238" stroke="#263238" stroke-width="0.719616" stroke-miterlimit="10"/>
<path d="M372.191 533.521L370.676 424.22" stroke="#263238" stroke-width="0.719616" stroke-miterlimit="10"/>
<path d="M373.007 539.697L373.707 547.387" stroke="#263238" stroke-width="0.719616" stroke-miterlimit="10"/>
<path d="M297.583 488.076C295.252 508.118 292.104 536.9 292.104 538.881C292.104 541.91 298.982 552.747 298.982 552.747L292.804 554.262L294.319 558.923" stroke="#263238" stroke-width="0.719616" stroke-miterlimit="10"/>
<path d="M299.798 468.849C299.798 468.849 299.448 471.762 298.865 476.54" stroke="#263238" stroke-width="0.719616" stroke-miterlimit="10"/>
<path d="M256.899 579.431C256.665 581.645 257.132 583.859 257.132 583.859H305.277V579.431H256.899Z" fill="#797474" stroke="black" stroke-width="0.719616" stroke-miterlimit="10"/>
<path d="M352.023 583.859H400.169C400.169 583.859 400.635 581.878 400.519 579.781H352.023V583.859Z" fill="#797474" stroke="black" stroke-width="0.719616" stroke-miterlimit="10"/>
<path d="M340.376 149.56C340.062 149.491 339.74 149.481 339.421 149.533C334.663 150.306 295.926 156.599 291.988 157.146C287.907 157.845 285.343 159.01 284.643 159.476C283.944 159.943 279.631 237.198 279.864 238.364C280.075 239.419 281.529 303.445 281.802 315.529C281.828 316.685 282.606 317.669 283.732 317.932C291.186 319.667 319.107 325.841 338.151 325.641C356.055 325.452 371.675 323.513 377.004 322.776C378.156 322.617 379.034 321.687 379.152 320.53L386.063 252.463L391.054 225.786C391.272 224.621 392.262 223.758 393.446 223.702L417.496 222.557C419.169 222.478 420.322 220.858 419.824 219.259C416.853 209.717 408.113 181.565 407.63 179.053C406.93 176.139 383.266 165.419 376.621 162.157C370.393 159.208 355.255 153.188 353.381 152.444C353.253 152.394 353.122 152.354 352.988 152.324L340.376 149.56Z" fill="#009BA6" stroke="#263238" stroke-width="0.719616" stroke-miterlimit="10"/>
<path d="M337.918 167.283L358.202 198.978L375.688 165.652" stroke="#263238" stroke-width="0.719616" stroke-miterlimit="10"/>
<path d="M330.574 155.864L333.721 160.758" stroke="#263238" stroke-width="0.719616" stroke-miterlimit="10"/>
<path d="M391.426 223.798L403.083 187.559L395.273 223.798H391.426Z" fill="#263238" stroke="#263238" stroke-width="0.719616" stroke-miterlimit="10"/>
<path d="M403.55 117.295C403.55 117.295 405.415 116.595 405.648 114.614C405.881 112.517 407.28 105.059 401.335 97.0193C395.389 89.0956 382.683 82.2206 370.326 86.299C357.969 90.3774 352.49 102.496 351.907 108.672C351.208 114.848 349.576 126.034 349.576 126.034L336.636 151.32L358.785 184.995L373.823 158.078C373.823 158.078 366.945 148.057 364.497 139.201C361.932 130.345 369.277 124.869 377.32 119.625C385.364 114.381 391.892 113.682 394.69 114.848C397.138 116.013 403.55 117.295 403.55 117.295Z" fill="#F8E9C5" stroke="#263238" stroke-width="0.719616" stroke-miterlimit="10"/>
<path d="M356.104 141.183L367.412 168.566L374.406 156.797L356.104 141.183Z" fill="#263238" stroke="#263238" stroke-width="0.719616" stroke-miterlimit="10"/>
<path d="M377.087 119.626C385.014 114.382 391.659 113.683 394.457 114.848C397.138 116.013 403.549 117.412 403.549 117.412C403.549 117.412 405.415 116.713 405.648 114.732C405.881 112.634 407.28 105.177 401.335 97.1365C395.389 89.2128 382.683 82.3378 370.326 86.4162C357.969 90.4946 352.49 102.613 351.907 108.789C351.441 112.751 350.625 118.694 350.158 122.539L366.712 128.598C369.043 125.102 372.89 122.306 377.087 119.626Z" fill="#263238" stroke="#263238" stroke-width="0.719616" stroke-miterlimit="10"/>
<path d="M359.951 121.024C359.951 121.024 363.798 121.723 365.896 119.626C367.994 117.528 364.73 115.081 369.277 113.683C373.823 112.285 378.136 114.382 379.069 111.353C380.001 108.439 381.4 103.662 383.615 102.264C385.947 100.865 396.788 107.973 400.985 110.887C405.065 113.8 403.666 116.596 401.918 123.238C400.052 129.88 398.304 131.861 396.205 132.327C394.107 132.793 393.058 133.958 393.058 136.871C393.058 139.785 393.757 143.98 392.125 145.494C390.493 147.126 385.48 146.893 385.48 146.893C385.48 146.893 381.167 154.816 379.069 157.38C376.971 159.943 372.657 159.943 369.277 157.613C365.896 155.282 355.637 143.513 354.472 138.736C353.306 133.958 354.938 129.414 355.87 126.617C356.803 123.821 359.951 121.024 359.951 121.024Z" fill="#F8E9C5" stroke="#263238" stroke-width="0.719616" stroke-miterlimit="10"/>
<path d="M361.349 122.772C361.349 122.772 361.116 115.897 357.036 115.081C352.956 114.149 348.643 122.189 350.391 127.2C352.257 132.21 357.502 130.346 357.502 130.346" fill="#F8E9C5"/>
<path d="M361.349 122.772C361.349 122.772 361.116 115.897 357.036 115.081C352.956 114.149 348.643 122.189 350.391 127.2C352.257 132.21 357.502 130.346 357.502 130.346" stroke="#263238" stroke-width="0.719616" stroke-miterlimit="10"/>
<path d="M386.413 131.511L385.247 134.191C385.247 134.191 380.235 133.026 379.768 130.579" stroke="#263238" stroke-width="0.719616" stroke-miterlimit="10"/>
<path d="M390.493 130.346C390.493 130.346 386.879 125.569 381.867 125.569" stroke="#263238" stroke-width="0.719616" stroke-miterlimit="10"/>
<path d="M268.09 208.533C268.09 208.533 258.764 239.412 257.015 247.919C255.15 256.425 257.248 264.465 261.445 268.776C265.525 273.204 291.405 278.565 291.405 278.565L290.356 270.757C290.356 270.757 282.895 253.162 282.662 252.113C282.429 251.065 294.319 214.01 294.319 214.01L268.09 208.533Z" fill="#F8E9C5" stroke="#263238" stroke-width="0.719616" stroke-miterlimit="10"/>
<path d="M265.525 214.942L290.589 222.866C292.571 218.088 294.086 214.243 294.086 214.243L267.973 208.533C268.09 208.533 266.924 211.213 265.525 214.942Z" fill="#263238" stroke="#263238" stroke-width="0.719616" stroke-miterlimit="10"/>
<path d="M264.592 251.88C264.592 251.88 270.654 246.986 281.262 253.046" stroke="#263238" stroke-width="0.719616" stroke-miterlimit="10"/>
<path d="M289.073 158.195C289.073 158.195 285.692 155.515 281.146 162.739C277.313 168.928 264.53 198.393 260.614 207.486C260.002 208.905 260.784 210.534 262.272 210.951L297.236 220.736C298.798 221.174 300.367 220.065 300.477 218.446L302.596 187.209" fill="#009BA6"/>
<path d="M289.073 158.195C289.073 158.195 285.692 155.515 281.146 162.739C277.313 168.928 264.53 198.393 260.614 207.486C260.002 208.905 260.784 210.534 262.272 210.951L297.236 220.736C298.798 221.174 300.367 220.065 300.477 218.446L302.596 187.209" stroke="#263238" stroke-width="0.719616" stroke-miterlimit="10"/>
<path d="M374.173 334.613C374.173 334.613 346.428 332.282 329.175 335.895C311.922 339.507 302.13 343.119 302.13 343.119C302.13 343.119 293.037 343.818 289.773 345.1C286.509 346.382 280.33 347.431 280.33 347.431C280.33 347.431 248.738 351.975 240.928 353.606C233.117 355.238 217.729 355.587 217.729 355.587C217.729 355.587 212.134 343.818 209.569 338.342C207.005 332.749 204.673 323.31 202.342 325.99C200.01 328.554 198.378 343.236 199.077 348.829C199.777 354.422 201.409 361.88 201.059 364.443C200.709 367.007 200.127 370.036 201.059 370.969C201.992 371.901 206.655 372.6 207.587 372.6C208.52 372.6 407.746 372.6 407.746 372.6C407.746 372.6 386.879 335.662 374.173 334.613Z" fill="#F8E9C5" stroke="#263238" stroke-width="0.719616" stroke-miterlimit="10"/>
<path d="M313.204 339.74V372.483C361.35 372.483 407.746 372.483 407.746 372.483C407.746 372.483 386.88 335.662 374.173 334.729C374.173 334.729 346.428 332.399 329.175 336.011C322.763 337.293 317.401 338.575 313.204 339.74Z" fill="#404040" stroke="#263238" stroke-width="0.719616" stroke-miterlimit="10"/>
<path d="M566.171 328.437C566.171 328.437 555.446 327.388 553.348 325.174C551.249 322.96 546.703 316.668 545.654 318.183C544.605 319.698 540.175 324.475 540.175 324.475C540.175 324.475 533.297 321.213 529.1 323.776C524.904 326.34 523.971 338.458 523.971 338.458C523.971 338.458 518.492 340.323 512.896 338.109C507.417 335.895 481.654 322.261 464.751 320.513C447.848 318.649 427.913 325.291 423.134 325.64C418.354 325.99 408.445 325.99 408.445 325.99V371.784H519.541C519.541 371.784 524.321 369.57 525.02 366.308C525.72 363.045 527.818 362.695 528.984 362.346C530.033 361.996 532.947 361.996 536.328 365.608C539.592 369.337 546.353 371.435 551.599 372.134C556.728 372.833 570.018 372.134 573.282 369.57C576.546 367.007 579.927 359.316 579.927 359.316C579.927 359.316 588.437 357.801 588.786 353.839C589.136 349.761 590.302 344.984 588.786 343.119C587.271 341.255 584.357 341.255 584.357 341.255C584.357 341.255 589.136 332.748 586.572 329.835C584.007 326.922 578.528 326.573 577.012 326.107C575.497 325.64 570.251 317.018 566.171 328.437Z" fill="#F8E9C5" stroke="#263238" stroke-width="0.719616" stroke-miterlimit="10"/>
<path d="M588.554 353.839C588.903 349.761 590.069 344.984 588.554 343.119C587.038 341.255 584.124 341.255 584.124 341.255C584.124 341.255 588.903 332.748 586.339 329.835C583.774 326.922 578.295 326.573 576.779 326.107C575.264 325.64 570.135 316.901 566.055 328.321C566.055 328.321 573.049 334.613 570.834 342.653C568.619 350.693 564.539 351.859 563.14 349.645C561.625 347.431 558.71 346.731 557.311 348.596C555.796 350.46 545.887 349.295 546.237 350.46C546.587 351.509 551.016 355.937 548.102 358.5C545.188 361.064 537.377 357.801 535.978 355.238C534.463 352.674 533.763 350.81 533.763 350.81L526.652 362.346C526.652 362.346 530.849 361.763 530.732 361.996C531.898 361.647 532.131 360.365 534.463 363.045C537.727 366.774 546.237 371.551 551.366 372.25C556.495 372.949 569.785 372.25 573.049 369.687C576.313 367.123 579.694 359.433 579.694 359.433C579.694 359.433 588.204 357.918 588.554 353.839Z" fill="#263238" stroke="#263238" stroke-width="0.719616" stroke-miterlimit="10"/>
<path d="M559.177 331.35C559.177 331.35 561.042 334.263 558.827 339.041L559.177 331.35Z" fill="#F8E9C5"/>
<path d="M559.177 331.35C559.177 331.35 561.042 334.263 558.827 339.041" stroke="#263238" stroke-width="0.719616" stroke-miterlimit="10"/>
<path d="M554.397 331.001L551.133 329.952C551.133 329.952 550.783 333.215 550.783 335.429" fill="#F8E9C5"/>
<path d="M554.397 331.001L551.133 329.952C551.133 329.952 550.783 333.215 550.783 335.429" stroke="#263238" stroke-width="0.719616" stroke-miterlimit="10"/>
<path d="M523.738 366.424C524.787 360.948 528.168 358.035 521.523 348.13C518.259 343.119 514.995 339.973 512.547 337.992C506.718 335.662 481.305 322.261 464.518 320.397C447.615 318.533 427.681 325.175 422.901 325.524C418.122 325.874 408.213 325.874 408.213 325.874V371.784H519.075C521.64 370.27 523.389 368.405 523.738 366.424Z" fill="#F9FFB4" stroke="#263238" stroke-width="0.719616" stroke-miterlimit="10"/>
<path d="M394.224 246.753L309.824 257.008C309.824 257.008 302.013 241.743 299.215 235.218C296.418 228.692 297.234 221.351 295.485 222.05C293.736 222.633 292.454 226.362 289.656 235.101C286.858 243.84 288.374 250.482 288.724 254.328C288.957 258.173 288.141 267.844 289.307 270.291C290.472 272.738 293.62 272.622 300.614 272.039C307.609 271.457 315.07 271.806 315.07 271.806C315.07 271.806 372.891 275.535 373.707 275.535C372.424 275.535 369.51 318.649 369.277 322.844C368.811 330.418 368.577 338.109 368.228 345.683C367.994 351.393 365.43 362.462 371.725 365.958C374.989 367.706 379.885 367.706 383.499 368.056C393.524 368.871 405.065 370.037 414.974 367.823C415.79 367.706 416.606 367.59 417.306 367.123C423.018 364.094 420.919 354.655 419.87 349.645C416.373 333.448 414.158 317.134 412.06 300.704C410.894 291.266 409.612 281.944 408.096 272.622C407.28 267.378 406.814 260.969 404.366 256.075C403.2 253.745 402.267 251.997 401.568 250.599C400.169 248.152 397.255 246.52 394.224 246.753Z" fill="#F8E9C5" stroke="black" stroke-width="0.719616" stroke-miterlimit="10"/>
<path d="M373.707 275.652C373.707 275.652 374.056 276.001 385.014 272.855" stroke="black" stroke-width="0.719616" stroke-miterlimit="10"/>
<path d="M412.06 300.938C411.71 298.607 411.477 296.277 411.127 293.946H371.375C370.326 306.298 369.393 320.63 369.277 322.961C368.81 330.535 368.577 338.225 368.227 345.8C367.994 351.509 365.43 362.579 371.725 366.075C374.989 367.823 379.885 367.823 383.499 368.172C393.524 368.988 405.065 370.153 414.974 367.939C415.79 367.823 416.606 367.706 417.305 367.24C423.018 364.21 420.919 354.772 419.87 349.761C416.373 333.681 414.158 317.251 412.06 300.938Z" fill="#404040" stroke="black" stroke-width="0.719616" stroke-miterlimit="10"/>
<path d="M505.086 345.1C505.086 345.1 460.671 349.878 453.91 350.344C447.149 350.693 436.657 349.528 428.264 351.509C419.87 353.49 393.874 357.102 393.874 357.102C393.874 357.102 375.455 355.937 371.258 356.286C367.062 356.636 357.036 368.638 357.036 368.638H384.781H514.879C514.879 368.638 526.653 363.394 526.186 355.471C525.604 347.547 518.492 340.672 505.086 345.1Z" fill="#F8E9C5" stroke="#263238" stroke-width="0.719616" stroke-miterlimit="10"/>
<path d="M473.145 348.479V368.755H514.645C514.645 368.755 526.419 363.511 525.953 355.587C525.487 347.547 518.376 340.789 504.97 345.217C505.086 345.1 487.833 346.965 473.145 348.479Z" fill="#F9FFB4" stroke="#263238" stroke-width="0.719616" stroke-miterlimit="10"/>
<path d="M395.623 250.832C395.623 250.832 403.55 240.811 405.415 241.976C407.28 243.141 406.814 245.588 405.998 246.754C405.298 247.919 398.42 252.813 397.138 253.162C395.972 253.512 394.574 252.58 395.623 250.832Z" fill="#F8E9C5" stroke="#263238" stroke-width="0.719616" stroke-miterlimit="10"/>
<path d="M403.666 262.717C403.666 262.717 410.194 254.561 411.71 255.376C413.225 256.308 412.876 258.406 412.176 259.338C411.593 260.27 405.998 264.232 404.949 264.582C403.899 264.815 402.734 264.116 403.666 262.717Z" fill="#F8E9C5" stroke="#263238" stroke-width="0.719616" stroke-miterlimit="10"/>
<path d="M400.635 259.688C400.635 259.688 408.562 249.667 410.428 250.832C412.293 251.997 411.826 254.444 411.01 255.609C410.194 256.775 403.433 261.669 402.151 262.018C400.868 262.368 399.586 261.436 400.635 259.688Z" fill="#F8E9C5" stroke="#263238" stroke-width="0.719616" stroke-miterlimit="10"/>
<path d="M396.439 256.308C396.439 256.308 405.415 244.889 407.63 246.171C409.728 247.452 409.145 250.366 408.329 251.647C407.513 252.929 399.703 258.522 398.304 258.872C396.788 259.338 395.273 258.289 396.439 256.308Z" fill="#F8E9C5" stroke="#263238" stroke-width="0.719616" stroke-miterlimit="10"/>
<path d="M275.667 263.533C275.667 263.533 275.9 263.766 276.134 263.999C277.183 265.164 279.747 268.078 280.563 270.641C281.496 273.904 282.195 276.001 282.895 276.234C283.594 276.467 289.19 277.633 290.939 274.37C292.571 271.107 283.478 262.135 283.478 262.135C283.478 262.135 276.134 261.319 275.667 263.533Z" fill="#F8E9C5" stroke="#263238" stroke-width="0.719616" stroke-miterlimit="10"/>
<path d="M286.975 260.154C286.975 260.154 281.263 259.688 279.398 259.105C277.532 258.523 275.667 261.203 275.667 263.533C275.667 265.864 286.742 265.631 288.49 263.999C290.123 262.251 289.54 260.853 286.975 260.154Z" fill="#F8E9C5" stroke="#263238" stroke-width="0.719616" stroke-miterlimit="10"/>
<path d="M286.742 261.669C286.742 261.669 279.048 274.603 280.68 276.467C282.312 278.332 284.76 276.817 285.693 275.535C286.625 274.253 289.54 264.465 289.54 262.834C289.54 261.203 288.257 259.921 286.742 261.669Z" fill="#F8E9C5" stroke="#263238" stroke-width="0.719616" stroke-miterlimit="10"/>
<path d="M300.964 267.262C300.964 267.262 294.552 277.866 295.951 279.38C297.35 280.895 299.332 279.73 300.031 278.565C300.847 277.516 303.179 269.476 303.179 268.078C303.179 266.679 302.246 265.747 300.964 267.262Z" fill="#F8E9C5" stroke="#263238" stroke-width="0.719616" stroke-miterlimit="10"/>
<path d="M297.117 264.698C297.117 264.698 289.423 277.633 291.055 279.497C292.687 281.361 295.135 279.847 296.068 278.565C297 277.283 299.915 267.495 299.915 265.864C299.915 264.232 298.516 262.834 297.117 264.698Z" fill="#F8E9C5" stroke="#263238" stroke-width="0.719616" stroke-miterlimit="10"/>
<path d="M292.454 260.853C292.454 260.853 283.594 275.535 285.576 277.632C287.441 279.73 290.239 278.099 291.288 276.584C292.337 275.069 295.718 263.999 295.718 262.135C295.602 260.154 294.203 258.755 292.454 260.853Z" fill="#F8E9C5" stroke="#263238" stroke-width="0.719616" stroke-miterlimit="10"/>
<path d="M394.807 403.362H192.666C188.936 403.362 186.021 400.333 186.021 396.721V372.134C186.021 368.405 189.052 365.492 192.666 365.492H394.807C398.537 365.492 401.451 368.522 401.451 372.134V396.721C401.451 400.333 398.42 403.362 394.807 403.362Z" fill="#C5C5C5" stroke="#263238" stroke-width="0.719616" stroke-miterlimit="10"/>
<path d="M610.237 403.362H408.096C404.366 403.362 401.451 400.333 401.451 396.721V372.134C401.451 368.405 404.482 365.492 408.096 365.492H610.237C613.967 365.492 616.882 368.522 616.882 372.134V396.721C616.882 400.333 613.967 403.362 610.237 403.362Z" fill="#C5C5C5" stroke="#263238" stroke-width="0.719616" stroke-miterlimit="10"/>
<path d="M211.318 411.519H199.311V583.859H211.318V411.519Z" fill="#919191" stroke="#263238" stroke-width="0.719616" stroke-miterlimit="10"/>
<path d="M211.318 411.519H199.311V428.415H211.318V411.519Z" fill="#263238" stroke="#263238" stroke-width="0.719616" stroke-miterlimit="10"/>
<path d="M597.88 411.519H585.873V583.859H597.88V411.519Z" fill="#919191" stroke="#263238" stroke-width="0.719616" stroke-miterlimit="10"/>
<path d="M597.88 411.519H585.873V428.415H597.88V411.519Z" fill="#263238" stroke="#263238" stroke-width="0.719616" stroke-miterlimit="10"/>
<path d="M407.746 411.519H395.739V583.859H407.746V411.519Z" fill="#919191" stroke="#263238" stroke-width="0.719616" stroke-miterlimit="10"/>
<path d="M407.746 411.519H395.739V428.415H407.746V411.519Z" fill="#263238" stroke="#263238" stroke-width="0.719616" stroke-miterlimit="10"/>
<path d="M616.539 398.818H186.247C184.835 398.818 183.69 399.963 183.69 401.376V415.487C183.69 416.9 184.835 418.045 186.247 418.045H616.539C617.951 418.045 619.096 416.9 619.096 415.487V401.376C619.096 399.963 617.951 398.818 616.539 398.818Z" fill="#919191" stroke="#263238" stroke-width="0.719616" stroke-miterlimit="10"/>
<path d="M86 584H709" stroke="#263238" stroke-width="0.719616" stroke-miterlimit="10"/>
</svg>
